<svg xmlns="http://www.w3.org/2000/svg" width="48" height="56"  viewBox="0 0 52 60" stroke="#000" stroke-linecap="round" stroke-linejoin="round" fill="#fff" fill-rule="evenodd">
    <path d="M26 1c2-1 4-1 6 0l23 13c2 1 3 3 3 4v27c0 2-1 4-3 5L31 63c-1 1-3 1-5 0l-7-4-1-1c0-1 1-1 1-1 1 0 2-1 3-1h1l6 3c0 1 0 0 1 0l23-13s1 0 1-1V18h-1L29 4h-1L5 18c-1 0-1 0-1 1v26c0 1 0 1 1 1l6 4c1 0 3 1 4 0 1 0 2-1 2-3V21c0-1 0-1 1-1h3v1 27c0 2-1 5-3 6-3 1-6 1-9-1l-6-3c-2-1-3-3-3-5V18c0-1 1-3 3-4L26 1zm7 18c4 0 7 0 10 2 3 1 4 4 4 7h-1-3v-1c-1-1-1-2-2-3-2-1-4-1-6-1-2 1-4 1-5 2-1 0-1 2-1 3 1 0 2 1 2 1 4 1 9 1 13 2 2 1 3 2 4 4s0 5-1 7l-6 3h-8c-2 0-5-1-7-3-2-1-2-3-2-6h3c1 0 1 0 1 1s1 2 2 3c2 1 4 1 7 1 2 0 4 0 6-1 0-1 1-2 0-3 0-1-1-2-2-2-4-1-8-1-12-2-2-1-4-2-4-4-1-2-1-5 1-7s5-2 7-3z" stroke="none" fill="#8cc84b" fill-rule="nonzero"/>
</svg>