<svg xmlns="http://www.w3.org/2000/svg" width="29" height="65" stroke="none" stroke-linecap="round" stroke-linejoin="round" fill="#fff" fill-rule="nonzero">
    <path d="M14.1741.1748l1.708 3.208c.3841.592.8001 1.116 1.29 1.604 1.4301 1.43 2.788 2.928 4.008 4.532 2.894 3.8 4.846 8.02 6.2401 12.584.836 2.788 1.29 5.648 1.3239 8.54.1401 8.646-2.8239 16.07-8.7999 22.24-.9761.976-2.0201 1.88-3.14 2.684-.5921 0-.8721-.454-1.1161-.872-.454-.766-.7319-1.64-.8719-2.51-.21-1.046-.3481-2.092-.28-3.172v-.488c-.048-.104-.5701-48.104-.3621-48.35z" fill="#599636"/>
    <path d="M14.1742.0688c-.0701-.14-.14-.034-.21.034.034.7-.21 1.324-.592 1.92-.42.592-.976 1.046-1.534 1.534-3.1 2.684-5.54 5.926-7.494 9.552-2.6 4.88-3.94 10.11-4.32 15.616-.1741 1.986.628 8.994 1.2539 11.016 1.7081 5.368 4.7761 9.866 8.7501 13.77.976.94 2.02 1.812 3.1 2.65.314 0 .348-.28.42-.488.1376-.4451.2426-.8996.314-1.36l.7-5.228-.388-49.016z" fill="#6cac48"/>
    <path d="M15.8821 57.6908c.07-.8.454-1.464.872-2.126-.42-.174-.732-.52-.976-.906-.21-.348-.384-.766-.52-1.15-.488-1.464-.592-3-.732-4.496v-.906c-.174.14-.21 1.324-.21 1.5a34.744 34.744 0 0 1-.628 4.706c-.104.628-.174 1.254-.56 1.812 0 .07 0 .14.034.244.628 1.848.8 3.73.906 5.648v.7c0 .836-.034.66.66.94.28.104.592.14.872.348.21 0 .244-.174.244-.314l-.104-1.15v-3.208c-.034-.56.07-1.116.14-1.64z" fill="#c2bfbf"/>
</svg>